<mxfile host="app.diagrams.net" agent="Mozilla/5.0 (Windows NT 10.0; Win64; x64) AppleWebKit/537.36 (KHTML, like Gecko) Chrome/129.0.0.0 Safari/537.36" version="24.7.17">
  <diagram id="6a731a19-8d31-9384-78a2-239565b7b9f0" name="Page-1">
    <mxGraphModel dx="2578" dy="1458" grid="1" gridSize="10" guides="1" tooltips="1" connect="1" arrows="1" fold="1" page="1" pageScale="1" pageWidth="1169" pageHeight="827" background="none" math="0" shadow="0">
      <root>
        <mxCell id="0" />
        <mxCell id="1" parent="0" />
        <mxCell id="2" value="start" style="shape=mxgraph.flowchart.terminator;strokeWidth=2;gradientColor=none;gradientDirection=north;fontStyle=0;html=1;" parent="1" vertex="1">
          <mxGeometry x="260" y="60" width="120" height="30" as="geometry" />
        </mxCell>
        <mxCell id="7" style="fontStyle=1;strokeColor=#003366;strokeWidth=1;html=1;" parent="1" source="2" edge="1">
          <mxGeometry relative="1" as="geometry">
            <mxPoint x="320" y="130" as="targetPoint" />
          </mxGeometry>
        </mxCell>
        <mxCell id="9L7pS83hbGjuV_d6aadw-70" value="&amp;lt;전체 플로우&amp;gt;" style="text;html=1;align=center;verticalAlign=middle;resizable=0;points=[];autosize=1;strokeColor=none;fillColor=none;" vertex="1" parent="1">
          <mxGeometry x="270" y="30" width="100" height="30" as="geometry" />
        </mxCell>
        <mxCell id="9L7pS83hbGjuV_d6aadw-151" value="콘서트 정보 조회 API" style="rounded=0;whiteSpace=wrap;html=1;" vertex="1" parent="1">
          <mxGeometry x="235" y="130" width="170" height="60" as="geometry" />
        </mxCell>
        <mxCell id="9L7pS83hbGjuV_d6aadw-203" style="edgeStyle=orthogonalEdgeStyle;rounded=0;orthogonalLoop=1;jettySize=auto;html=1;exitX=0.5;exitY=1;exitDx=0;exitDy=0;entryX=0.5;entryY=0;entryDx=0;entryDy=0;" edge="1" parent="1" target="9L7pS83hbGjuV_d6aadw-202">
          <mxGeometry relative="1" as="geometry">
            <mxPoint x="320" y="190" as="sourcePoint" />
          </mxGeometry>
        </mxCell>
        <mxCell id="9L7pS83hbGjuV_d6aadw-159" style="edgeStyle=orthogonalEdgeStyle;rounded=0;orthogonalLoop=1;jettySize=auto;html=1;exitX=0.5;exitY=1;exitDx=0;exitDy=0;entryX=0.5;entryY=0;entryDx=0;entryDy=0;" edge="1" parent="1" source="9L7pS83hbGjuV_d6aadw-154">
          <mxGeometry relative="1" as="geometry">
            <mxPoint x="320" y="476" as="targetPoint" />
          </mxGeometry>
        </mxCell>
        <mxCell id="9L7pS83hbGjuV_d6aadw-154" value="예약&amp;nbsp; API" style="rounded=0;whiteSpace=wrap;html=1;" vertex="1" parent="1">
          <mxGeometry x="235" y="360" width="170" height="60" as="geometry" />
        </mxCell>
        <mxCell id="9L7pS83hbGjuV_d6aadw-168" value="유저 잔액 조회 기능&amp;nbsp;" style="rounded=0;whiteSpace=wrap;html=1;" vertex="1" parent="1">
          <mxGeometry x="235" y="476" width="170" height="60" as="geometry" />
        </mxCell>
        <mxCell id="9L7pS83hbGjuV_d6aadw-170" value="end" style="shape=mxgraph.flowchart.terminator;strokeWidth=2;gradientColor=none;gradientDirection=north;fontStyle=0;html=1;" vertex="1" parent="1">
          <mxGeometry x="260" y="590" width="120" height="30" as="geometry" />
        </mxCell>
        <mxCell id="9L7pS83hbGjuV_d6aadw-172" style="edgeStyle=orthogonalEdgeStyle;rounded=0;orthogonalLoop=1;jettySize=auto;html=1;entryX=0.5;entryY=0;entryDx=0;entryDy=0;entryPerimeter=0;" edge="1" parent="1" source="9L7pS83hbGjuV_d6aadw-168" target="9L7pS83hbGjuV_d6aadw-170">
          <mxGeometry relative="1" as="geometry" />
        </mxCell>
        <mxCell id="9L7pS83hbGjuV_d6aadw-173" value="start" style="shape=mxgraph.flowchart.terminator;strokeWidth=2;gradientColor=none;gradientDirection=north;fontStyle=0;html=1;" vertex="1" parent="1">
          <mxGeometry x="710" y="60" width="120" height="30" as="geometry" />
        </mxCell>
        <mxCell id="9L7pS83hbGjuV_d6aadw-174" value="&amp;lt;콘서트 정보 조회&amp;gt;" style="text;html=1;align=center;verticalAlign=middle;resizable=0;points=[];autosize=1;strokeColor=none;fillColor=none;" vertex="1" parent="1">
          <mxGeometry x="705" y="30" width="130" height="30" as="geometry" />
        </mxCell>
        <mxCell id="9L7pS83hbGjuV_d6aadw-175" value="현재 날짜 입력" style="shape=parallelogram;perimeter=parallelogramPerimeter;whiteSpace=wrap;html=1;fixedSize=1;" vertex="1" parent="1">
          <mxGeometry x="705" y="120" width="120" height="50" as="geometry" />
        </mxCell>
        <mxCell id="9L7pS83hbGjuV_d6aadw-177" style="edgeStyle=orthogonalEdgeStyle;rounded=0;orthogonalLoop=1;jettySize=auto;html=1;exitX=0.5;exitY=1;exitDx=0;exitDy=0;exitPerimeter=0;entryX=0.541;entryY=-0.022;entryDx=0;entryDy=0;entryPerimeter=0;" edge="1" parent="1" source="9L7pS83hbGjuV_d6aadw-173" target="9L7pS83hbGjuV_d6aadw-175">
          <mxGeometry relative="1" as="geometry" />
        </mxCell>
        <mxCell id="9L7pS83hbGjuV_d6aadw-184" style="edgeStyle=orthogonalEdgeStyle;rounded=0;orthogonalLoop=1;jettySize=auto;html=1;exitX=0.5;exitY=1;exitDx=0;exitDy=0;entryX=0.5;entryY=0;entryDx=0;entryDy=0;" edge="1" parent="1" source="9L7pS83hbGjuV_d6aadw-178" target="9L7pS83hbGjuV_d6aadw-183">
          <mxGeometry relative="1" as="geometry" />
        </mxCell>
        <mxCell id="9L7pS83hbGjuV_d6aadw-178" value="콘서트 리스트 조회" style="rounded=0;whiteSpace=wrap;html=1;" vertex="1" parent="1">
          <mxGeometry x="680" y="210" width="170" height="60" as="geometry" />
        </mxCell>
        <mxCell id="9L7pS83hbGjuV_d6aadw-180" style="edgeStyle=orthogonalEdgeStyle;rounded=0;orthogonalLoop=1;jettySize=auto;html=1;exitX=0.5;exitY=1;exitDx=0;exitDy=0;entryX=0.5;entryY=0;entryDx=0;entryDy=0;" edge="1" parent="1" source="9L7pS83hbGjuV_d6aadw-175" target="9L7pS83hbGjuV_d6aadw-178">
          <mxGeometry relative="1" as="geometry" />
        </mxCell>
        <mxCell id="9L7pS83hbGjuV_d6aadw-183" value="현재 날짜 기준&amp;nbsp;&lt;div&gt;최신순 공연 출력&lt;/div&gt;" style="shape=parallelogram;perimeter=parallelogramPerimeter;whiteSpace=wrap;html=1;fixedSize=1;" vertex="1" parent="1">
          <mxGeometry x="705" y="310" width="120" height="50" as="geometry" />
        </mxCell>
        <mxCell id="9L7pS83hbGjuV_d6aadw-204" style="edgeStyle=orthogonalEdgeStyle;rounded=0;orthogonalLoop=1;jettySize=auto;html=1;exitX=0.5;exitY=1;exitDx=0;exitDy=0;entryX=0.5;entryY=0;entryDx=0;entryDy=0;" edge="1" parent="1" source="9L7pS83hbGjuV_d6aadw-202" target="9L7pS83hbGjuV_d6aadw-154">
          <mxGeometry relative="1" as="geometry" />
        </mxCell>
        <mxCell id="9L7pS83hbGjuV_d6aadw-202" value="표가 남아있는가?" style="rhombus;whiteSpace=wrap;html=1;" vertex="1" parent="1">
          <mxGeometry x="240" y="230" width="160" height="80" as="geometry" />
        </mxCell>
        <mxCell id="9L7pS83hbGjuV_d6aadw-208" style="edgeStyle=orthogonalEdgeStyle;rounded=0;orthogonalLoop=1;jettySize=auto;html=1;exitX=1;exitY=0.5;exitDx=0;exitDy=0;entryX=1;entryY=0.5;entryDx=0;entryDy=0;entryPerimeter=0;" edge="1" parent="1" source="9L7pS83hbGjuV_d6aadw-202" target="2">
          <mxGeometry relative="1" as="geometry">
            <Array as="points">
              <mxPoint x="620" y="270" />
              <mxPoint x="620" y="75" />
            </Array>
          </mxGeometry>
        </mxCell>
        <mxCell id="9L7pS83hbGjuV_d6aadw-210" value="N" style="text;html=1;align=center;verticalAlign=middle;resizable=0;points=[];autosize=1;strokeColor=none;fillColor=none;" vertex="1" parent="1">
          <mxGeometry x="375" y="241" width="30" height="30" as="geometry" />
        </mxCell>
        <mxCell id="9L7pS83hbGjuV_d6aadw-211" value="&amp;nbsp;Y" style="text;html=1;align=center;verticalAlign=middle;resizable=0;points=[];autosize=1;strokeColor=none;fillColor=none;" vertex="1" parent="1">
          <mxGeometry x="290" y="300" width="30" height="30" as="geometry" />
        </mxCell>
        <mxCell id="9L7pS83hbGjuV_d6aadw-233" style="edgeStyle=orthogonalEdgeStyle;rounded=0;orthogonalLoop=1;jettySize=auto;html=1;exitX=0.5;exitY=1;exitDx=0;exitDy=0;exitPerimeter=0;" edge="1" parent="1" source="9L7pS83hbGjuV_d6aadw-220" target="9L7pS83hbGjuV_d6aadw-231">
          <mxGeometry relative="1" as="geometry" />
        </mxCell>
        <mxCell id="9L7pS83hbGjuV_d6aadw-220" value="start" style="shape=mxgraph.flowchart.terminator;strokeWidth=2;gradientColor=none;gradientDirection=north;fontStyle=0;html=1;" vertex="1" parent="1">
          <mxGeometry x="1045" y="60" width="120" height="30" as="geometry" />
        </mxCell>
        <mxCell id="9L7pS83hbGjuV_d6aadw-221" value="&amp;lt;예약 기능 플로우&amp;gt;" style="text;html=1;align=center;verticalAlign=middle;resizable=0;points=[];autosize=1;strokeColor=none;fillColor=none;" vertex="1" parent="1">
          <mxGeometry x="1040" y="30" width="130" height="30" as="geometry" />
        </mxCell>
        <mxCell id="9L7pS83hbGjuV_d6aadw-254" style="edgeStyle=orthogonalEdgeStyle;rounded=0;orthogonalLoop=1;jettySize=auto;html=1;exitX=0.5;exitY=1;exitDx=0;exitDy=0;exitPerimeter=0;entryX=0.5;entryY=0;entryDx=0;entryDy=0;" edge="1" parent="1" source="9L7pS83hbGjuV_d6aadw-222" target="9L7pS83hbGjuV_d6aadw-253">
          <mxGeometry relative="1" as="geometry" />
        </mxCell>
        <mxCell id="9L7pS83hbGjuV_d6aadw-222" value="start" style="shape=mxgraph.flowchart.terminator;strokeWidth=2;gradientColor=none;gradientDirection=north;fontStyle=0;html=1;" vertex="1" parent="1">
          <mxGeometry x="1570" y="60" width="120" height="30" as="geometry" />
        </mxCell>
        <mxCell id="9L7pS83hbGjuV_d6aadw-223" value="&amp;lt;잔액조회 / 충전&amp;gt;" style="text;html=1;align=center;verticalAlign=middle;resizable=0;points=[];autosize=1;strokeColor=none;fillColor=none;" vertex="1" parent="1">
          <mxGeometry x="1570" y="30" width="120" height="30" as="geometry" />
        </mxCell>
        <mxCell id="9L7pS83hbGjuV_d6aadw-234" style="edgeStyle=orthogonalEdgeStyle;rounded=0;orthogonalLoop=1;jettySize=auto;html=1;exitX=0.5;exitY=1;exitDx=0;exitDy=0;" edge="1" parent="1" source="9L7pS83hbGjuV_d6aadw-231" target="9L7pS83hbGjuV_d6aadw-232">
          <mxGeometry relative="1" as="geometry" />
        </mxCell>
        <mxCell id="9L7pS83hbGjuV_d6aadw-231" value="아이디가 유효한가?" style="rhombus;whiteSpace=wrap;html=1;" vertex="1" parent="1">
          <mxGeometry x="1025" y="130" width="160" height="80" as="geometry" />
        </mxCell>
        <mxCell id="9L7pS83hbGjuV_d6aadw-238" style="edgeStyle=orthogonalEdgeStyle;rounded=0;orthogonalLoop=1;jettySize=auto;html=1;exitX=0.5;exitY=1;exitDx=0;exitDy=0;entryX=0.5;entryY=0;entryDx=0;entryDy=0;" edge="1" parent="1" source="9L7pS83hbGjuV_d6aadw-232" target="9L7pS83hbGjuV_d6aadw-236">
          <mxGeometry relative="1" as="geometry" />
        </mxCell>
        <mxCell id="9L7pS83hbGjuV_d6aadw-232" value="공연 정보가 유효한가?" style="rhombus;whiteSpace=wrap;html=1;" vertex="1" parent="1">
          <mxGeometry x="1025" y="250" width="160" height="80" as="geometry" />
        </mxCell>
        <mxCell id="9L7pS83hbGjuV_d6aadw-239" style="edgeStyle=orthogonalEdgeStyle;rounded=0;orthogonalLoop=1;jettySize=auto;html=1;exitX=0.5;exitY=1;exitDx=0;exitDy=0;entryX=0.5;entryY=0;entryDx=0;entryDy=0;" edge="1" parent="1" source="9L7pS83hbGjuV_d6aadw-236" target="9L7pS83hbGjuV_d6aadw-237">
          <mxGeometry relative="1" as="geometry" />
        </mxCell>
        <mxCell id="9L7pS83hbGjuV_d6aadw-236" value="대기열 토큰 발급" style="rounded=0;whiteSpace=wrap;html=1;" vertex="1" parent="1">
          <mxGeometry x="1020" y="370" width="170" height="60" as="geometry" />
        </mxCell>
        <mxCell id="9L7pS83hbGjuV_d6aadw-240" style="edgeStyle=orthogonalEdgeStyle;rounded=0;orthogonalLoop=1;jettySize=auto;html=1;exitX=0.5;exitY=1;exitDx=0;exitDy=0;" edge="1" parent="1" source="9L7pS83hbGjuV_d6aadw-237">
          <mxGeometry relative="1" as="geometry">
            <mxPoint x="1104.8333333333335" y="580" as="targetPoint" />
          </mxGeometry>
        </mxCell>
        <mxCell id="9L7pS83hbGjuV_d6aadw-237" value="잔여 좌석 조회" style="rounded=0;whiteSpace=wrap;html=1;" vertex="1" parent="1">
          <mxGeometry x="1020" y="476" width="170" height="60" as="geometry" />
        </mxCell>
        <mxCell id="9L7pS83hbGjuV_d6aadw-243" style="edgeStyle=orthogonalEdgeStyle;rounded=0;orthogonalLoop=1;jettySize=auto;html=1;exitX=0.5;exitY=1;exitDx=0;exitDy=0;" edge="1" parent="1" source="9L7pS83hbGjuV_d6aadw-241" target="9L7pS83hbGjuV_d6aadw-242">
          <mxGeometry relative="1" as="geometry" />
        </mxCell>
        <mxCell id="9L7pS83hbGjuV_d6aadw-241" value="좌석 선택" style="rounded=0;whiteSpace=wrap;html=1;" vertex="1" parent="1">
          <mxGeometry x="1020" y="580" width="170" height="60" as="geometry" />
        </mxCell>
        <mxCell id="9L7pS83hbGjuV_d6aadw-245" style="edgeStyle=orthogonalEdgeStyle;rounded=0;orthogonalLoop=1;jettySize=auto;html=1;exitX=0.5;exitY=1;exitDx=0;exitDy=0;" edge="1" parent="1" source="9L7pS83hbGjuV_d6aadw-242" target="9L7pS83hbGjuV_d6aadw-244">
          <mxGeometry relative="1" as="geometry" />
        </mxCell>
        <mxCell id="9L7pS83hbGjuV_d6aadw-242" value="좌석 정보,&lt;div&gt;유저정보,&lt;/div&gt;&lt;div&gt;티켓 정보 입력&lt;/div&gt;" style="shape=parallelogram;perimeter=parallelogramPerimeter;whiteSpace=wrap;html=1;fixedSize=1;" vertex="1" parent="1">
          <mxGeometry x="1045" y="680" width="120" height="50" as="geometry" />
        </mxCell>
        <mxCell id="9L7pS83hbGjuV_d6aadw-277" value="" style="edgeStyle=orthogonalEdgeStyle;rounded=0;orthogonalLoop=1;jettySize=auto;html=1;" edge="1" parent="1" source="9L7pS83hbGjuV_d6aadw-244" target="9L7pS83hbGjuV_d6aadw-262">
          <mxGeometry relative="1" as="geometry" />
        </mxCell>
        <mxCell id="9L7pS83hbGjuV_d6aadw-244" value="유저 잔액 조회 기능&amp;nbsp;" style="rounded=0;whiteSpace=wrap;html=1;" vertex="1" parent="1">
          <mxGeometry x="1020" y="760" width="170" height="60" as="geometry" />
        </mxCell>
        <mxCell id="9L7pS83hbGjuV_d6aadw-246" style="edgeStyle=orthogonalEdgeStyle;rounded=0;orthogonalLoop=1;jettySize=auto;html=1;exitX=1;exitY=0.5;exitDx=0;exitDy=0;entryX=1;entryY=0.5;entryDx=0;entryDy=0;entryPerimeter=0;" edge="1" parent="1" source="9L7pS83hbGjuV_d6aadw-231" target="9L7pS83hbGjuV_d6aadw-220">
          <mxGeometry relative="1" as="geometry">
            <Array as="points">
              <mxPoint x="1410" y="170" />
              <mxPoint x="1410" y="75" />
            </Array>
          </mxGeometry>
        </mxCell>
        <mxCell id="9L7pS83hbGjuV_d6aadw-248" style="edgeStyle=orthogonalEdgeStyle;rounded=0;orthogonalLoop=1;jettySize=auto;html=1;exitX=1;exitY=0.5;exitDx=0;exitDy=0;entryX=1;entryY=0.5;entryDx=0;entryDy=0;entryPerimeter=0;" edge="1" parent="1" source="9L7pS83hbGjuV_d6aadw-232" target="9L7pS83hbGjuV_d6aadw-220">
          <mxGeometry relative="1" as="geometry">
            <Array as="points">
              <mxPoint x="1410" y="290" />
              <mxPoint x="1410" y="75" />
            </Array>
          </mxGeometry>
        </mxCell>
        <mxCell id="9L7pS83hbGjuV_d6aadw-249" value="N" style="text;html=1;align=center;verticalAlign=middle;resizable=0;points=[];autosize=1;strokeColor=none;fillColor=none;" vertex="1" parent="1">
          <mxGeometry x="1165" y="140" width="30" height="30" as="geometry" />
        </mxCell>
        <mxCell id="9L7pS83hbGjuV_d6aadw-250" value="N" style="text;html=1;align=center;verticalAlign=middle;resizable=0;points=[];autosize=1;strokeColor=none;fillColor=none;" vertex="1" parent="1">
          <mxGeometry x="1169" y="261" width="30" height="30" as="geometry" />
        </mxCell>
        <mxCell id="9L7pS83hbGjuV_d6aadw-251" value="&amp;nbsp;Y" style="text;html=1;align=center;verticalAlign=middle;resizable=0;points=[];autosize=1;strokeColor=none;fillColor=none;" vertex="1" parent="1">
          <mxGeometry x="1080" y="320" width="30" height="30" as="geometry" />
        </mxCell>
        <mxCell id="9L7pS83hbGjuV_d6aadw-252" value="&amp;nbsp;Y" style="text;html=1;align=center;verticalAlign=middle;resizable=0;points=[];autosize=1;strokeColor=none;fillColor=none;" vertex="1" parent="1">
          <mxGeometry x="1080" y="200" width="30" height="30" as="geometry" />
        </mxCell>
        <mxCell id="9L7pS83hbGjuV_d6aadw-256" style="edgeStyle=orthogonalEdgeStyle;rounded=0;orthogonalLoop=1;jettySize=auto;html=1;exitX=0.5;exitY=1;exitDx=0;exitDy=0;" edge="1" parent="1" source="9L7pS83hbGjuV_d6aadw-253">
          <mxGeometry relative="1" as="geometry">
            <mxPoint x="1630" y="210" as="targetPoint" />
          </mxGeometry>
        </mxCell>
        <mxCell id="9L7pS83hbGjuV_d6aadw-253" value="대기열 토큰,&lt;div&gt;유저정보,&lt;/div&gt;&lt;div&gt;티켓 정보&lt;/div&gt;" style="shape=parallelogram;perimeter=parallelogramPerimeter;whiteSpace=wrap;html=1;fixedSize=1;" vertex="1" parent="1">
          <mxGeometry x="1570" y="120" width="120" height="50" as="geometry" />
        </mxCell>
        <mxCell id="9L7pS83hbGjuV_d6aadw-280" style="edgeStyle=orthogonalEdgeStyle;rounded=0;orthogonalLoop=1;jettySize=auto;html=1;exitX=0.5;exitY=1;exitDx=0;exitDy=0;entryX=0.5;entryY=0;entryDx=0;entryDy=0;" edge="1" parent="1" source="9L7pS83hbGjuV_d6aadw-258" target="9L7pS83hbGjuV_d6aadw-270">
          <mxGeometry relative="1" as="geometry" />
        </mxCell>
        <mxCell id="9L7pS83hbGjuV_d6aadw-282" value="" style="edgeStyle=orthogonalEdgeStyle;rounded=0;orthogonalLoop=1;jettySize=auto;html=1;" edge="1" parent="1" source="9L7pS83hbGjuV_d6aadw-258" target="9L7pS83hbGjuV_d6aadw-281">
          <mxGeometry relative="1" as="geometry" />
        </mxCell>
        <mxCell id="9L7pS83hbGjuV_d6aadw-258" value="잔액 &amp;gt; 티켓 가격?" style="rhombus;whiteSpace=wrap;html=1;" vertex="1" parent="1">
          <mxGeometry x="1550" y="211" width="160" height="80" as="geometry" />
        </mxCell>
        <mxCell id="9L7pS83hbGjuV_d6aadw-259" value="end" style="shape=mxgraph.flowchart.terminator;strokeWidth=2;gradientColor=none;gradientDirection=north;fontStyle=0;html=1;" vertex="1" parent="1">
          <mxGeometry x="705" y="410" width="120" height="30" as="geometry" />
        </mxCell>
        <mxCell id="9L7pS83hbGjuV_d6aadw-260" style="edgeStyle=orthogonalEdgeStyle;rounded=0;orthogonalLoop=1;jettySize=auto;html=1;exitX=0.5;exitY=1;exitDx=0;exitDy=0;entryX=0.5;entryY=0;entryDx=0;entryDy=0;entryPerimeter=0;" edge="1" parent="1" source="9L7pS83hbGjuV_d6aadw-183" target="9L7pS83hbGjuV_d6aadw-259">
          <mxGeometry relative="1" as="geometry" />
        </mxCell>
        <mxCell id="9L7pS83hbGjuV_d6aadw-265" style="edgeStyle=orthogonalEdgeStyle;rounded=0;orthogonalLoop=1;jettySize=auto;html=1;exitX=1;exitY=0.5;exitDx=0;exitDy=0;entryX=1;entryY=0.5;entryDx=0;entryDy=0;entryPerimeter=0;" edge="1" parent="1" source="9L7pS83hbGjuV_d6aadw-262" target="9L7pS83hbGjuV_d6aadw-220">
          <mxGeometry relative="1" as="geometry">
            <mxPoint x="1560" y="374.44447835286456" as="targetPoint" />
            <Array as="points">
              <mxPoint x="1410" y="905" />
              <mxPoint x="1410" y="75" />
            </Array>
          </mxGeometry>
        </mxCell>
        <mxCell id="9L7pS83hbGjuV_d6aadw-272" style="edgeStyle=orthogonalEdgeStyle;rounded=0;orthogonalLoop=1;jettySize=auto;html=1;exitX=0.5;exitY=1;exitDx=0;exitDy=0;entryX=0.5;entryY=0;entryDx=0;entryDy=0;" edge="1" parent="1" source="9L7pS83hbGjuV_d6aadw-262" target="9L7pS83hbGjuV_d6aadw-271">
          <mxGeometry relative="1" as="geometry" />
        </mxCell>
        <mxCell id="9L7pS83hbGjuV_d6aadw-262" value="예약 성공?" style="rhombus;whiteSpace=wrap;html=1;" vertex="1" parent="1">
          <mxGeometry x="1025" y="865" width="160" height="80" as="geometry" />
        </mxCell>
        <mxCell id="9L7pS83hbGjuV_d6aadw-263" value="end" style="shape=mxgraph.flowchart.terminator;strokeWidth=2;gradientColor=none;gradientDirection=north;fontStyle=0;html=1;" vertex="1" parent="1">
          <mxGeometry x="1045" y="1110" width="120" height="30" as="geometry" />
        </mxCell>
        <mxCell id="9L7pS83hbGjuV_d6aadw-266" value="&quot;공연정보가 유효하지 않습니다&quot;" style="text;html=1;align=center;verticalAlign=middle;resizable=0;points=[];autosize=1;strokeColor=none;fillColor=none;" vertex="1" parent="1">
          <mxGeometry x="1199" y="261" width="190" height="30" as="geometry" />
        </mxCell>
        <mxCell id="9L7pS83hbGjuV_d6aadw-267" value="&quot;유저가 유효하지 않습니다&quot;" style="text;html=1;align=center;verticalAlign=middle;resizable=0;points=[];autosize=1;strokeColor=none;fillColor=none;" vertex="1" parent="1">
          <mxGeometry x="1209" y="140" width="170" height="30" as="geometry" />
        </mxCell>
        <mxCell id="9L7pS83hbGjuV_d6aadw-268" value="N" style="text;html=1;align=center;verticalAlign=middle;resizable=0;points=[];autosize=1;strokeColor=none;fillColor=none;" vertex="1" parent="1">
          <mxGeometry x="1165" y="870" width="30" height="30" as="geometry" />
        </mxCell>
        <mxCell id="9L7pS83hbGjuV_d6aadw-269" value="&amp;nbsp;Y" style="text;html=1;align=center;verticalAlign=middle;resizable=0;points=[];autosize=1;strokeColor=none;fillColor=none;" vertex="1" parent="1">
          <mxGeometry x="1076" y="949" width="30" height="30" as="geometry" />
        </mxCell>
        <mxCell id="9L7pS83hbGjuV_d6aadw-296" style="edgeStyle=orthogonalEdgeStyle;rounded=0;orthogonalLoop=1;jettySize=auto;html=1;exitX=0.5;exitY=1;exitDx=0;exitDy=0;" edge="1" parent="1" source="9L7pS83hbGjuV_d6aadw-270">
          <mxGeometry relative="1" as="geometry">
            <mxPoint x="1629.8333333333335" y="940" as="targetPoint" />
          </mxGeometry>
        </mxCell>
        <mxCell id="9L7pS83hbGjuV_d6aadw-270" value="잔액 사용&amp;nbsp;" style="rounded=0;whiteSpace=wrap;html=1;" vertex="1" parent="1">
          <mxGeometry x="1545" y="790" width="170" height="60" as="geometry" />
        </mxCell>
        <mxCell id="9L7pS83hbGjuV_d6aadw-273" style="edgeStyle=orthogonalEdgeStyle;rounded=0;orthogonalLoop=1;jettySize=auto;html=1;exitX=0.5;exitY=1;exitDx=0;exitDy=0;entryX=0.5;entryY=0;entryDx=0;entryDy=0;entryPerimeter=0;" edge="1" parent="1" source="9L7pS83hbGjuV_d6aadw-271" target="9L7pS83hbGjuV_d6aadw-263">
          <mxGeometry relative="1" as="geometry">
            <mxPoint x="1104.8333333333335" y="1120" as="targetPoint" />
          </mxGeometry>
        </mxCell>
        <mxCell id="9L7pS83hbGjuV_d6aadw-271" value="대기열 토큰 반납" style="rounded=0;whiteSpace=wrap;html=1;" vertex="1" parent="1">
          <mxGeometry x="1020" y="1000" width="170" height="60" as="geometry" />
        </mxCell>
        <mxCell id="9L7pS83hbGjuV_d6aadw-278" value="&lt;div&gt;&quot;잔액이 부족합니다&quot;&lt;/div&gt;" style="text;html=1;align=center;verticalAlign=middle;resizable=0;points=[];autosize=1;strokeColor=none;fillColor=none;" vertex="1" parent="1">
          <mxGeometry x="1229" y="880" width="130" height="30" as="geometry" />
        </mxCell>
        <mxCell id="9L7pS83hbGjuV_d6aadw-284" value="" style="edgeStyle=orthogonalEdgeStyle;rounded=0;orthogonalLoop=1;jettySize=auto;html=1;" edge="1" parent="1" source="9L7pS83hbGjuV_d6aadw-281" target="9L7pS83hbGjuV_d6aadw-283">
          <mxGeometry relative="1" as="geometry" />
        </mxCell>
        <mxCell id="9L7pS83hbGjuV_d6aadw-281" value="부족한 잔액 계산" style="rounded=0;whiteSpace=wrap;html=1;" vertex="1" parent="1">
          <mxGeometry x="1770" y="221" width="170" height="60" as="geometry" />
        </mxCell>
        <mxCell id="9L7pS83hbGjuV_d6aadw-286" value="" style="edgeStyle=orthogonalEdgeStyle;rounded=0;orthogonalLoop=1;jettySize=auto;html=1;" edge="1" parent="1" source="9L7pS83hbGjuV_d6aadw-283" target="9L7pS83hbGjuV_d6aadw-285">
          <mxGeometry relative="1" as="geometry" />
        </mxCell>
        <mxCell id="9L7pS83hbGjuV_d6aadw-283" value="반올림 후 충전" style="rounded=0;whiteSpace=wrap;html=1;" vertex="1" parent="1">
          <mxGeometry x="1770" y="340" width="170" height="60" as="geometry" />
        </mxCell>
        <mxCell id="9L7pS83hbGjuV_d6aadw-289" style="edgeStyle=orthogonalEdgeStyle;rounded=0;orthogonalLoop=1;jettySize=auto;html=1;exitX=0.5;exitY=1;exitDx=0;exitDy=0;entryX=0.5;entryY=0;entryDx=0;entryDy=0;" edge="1" parent="1" source="9L7pS83hbGjuV_d6aadw-285" target="9L7pS83hbGjuV_d6aadw-288">
          <mxGeometry relative="1" as="geometry" />
        </mxCell>
        <mxCell id="9L7pS83hbGjuV_d6aadw-285" value="결제 API 연결" style="rounded=0;whiteSpace=wrap;html=1;" vertex="1" parent="1">
          <mxGeometry x="1770" y="450" width="170" height="60" as="geometry" />
        </mxCell>
        <mxCell id="9L7pS83hbGjuV_d6aadw-294" value="" style="edgeStyle=orthogonalEdgeStyle;rounded=0;orthogonalLoop=1;jettySize=auto;html=1;" edge="1" parent="1" source="9L7pS83hbGjuV_d6aadw-288" target="9L7pS83hbGjuV_d6aadw-290">
          <mxGeometry relative="1" as="geometry" />
        </mxCell>
        <mxCell id="9L7pS83hbGjuV_d6aadw-288" value="결제 성공?" style="rhombus;whiteSpace=wrap;html=1;" vertex="1" parent="1">
          <mxGeometry x="1775" y="550" width="160" height="80" as="geometry" />
        </mxCell>
        <mxCell id="9L7pS83hbGjuV_d6aadw-295" style="edgeStyle=orthogonalEdgeStyle;rounded=0;orthogonalLoop=1;jettySize=auto;html=1;exitX=0.5;exitY=1;exitDx=0;exitDy=0;entryX=1;entryY=0.5;entryDx=0;entryDy=0;" edge="1" parent="1" source="9L7pS83hbGjuV_d6aadw-290" target="9L7pS83hbGjuV_d6aadw-270">
          <mxGeometry relative="1" as="geometry" />
        </mxCell>
        <mxCell id="9L7pS83hbGjuV_d6aadw-290" value="잔액 충전" style="rounded=0;whiteSpace=wrap;html=1;" vertex="1" parent="1">
          <mxGeometry x="1770" y="670" width="170" height="60" as="geometry" />
        </mxCell>
        <mxCell id="9L7pS83hbGjuV_d6aadw-297" value="end" style="shape=mxgraph.flowchart.terminator;strokeWidth=2;gradientColor=none;gradientDirection=north;fontStyle=0;html=1;" vertex="1" parent="1">
          <mxGeometry x="1570" y="940" width="120" height="30" as="geometry" />
        </mxCell>
        <mxCell id="9L7pS83hbGjuV_d6aadw-298" value="N" style="text;html=1;align=center;verticalAlign=middle;resizable=0;points=[];autosize=1;strokeColor=none;fillColor=none;" vertex="1" parent="1">
          <mxGeometry x="1690" y="225" width="30" height="30" as="geometry" />
        </mxCell>
        <mxCell id="9L7pS83hbGjuV_d6aadw-299" value="&amp;nbsp;Y" style="text;html=1;align=center;verticalAlign=middle;resizable=0;points=[];autosize=1;strokeColor=none;fillColor=none;" vertex="1" parent="1">
          <mxGeometry x="1600" y="280" width="30" height="30" as="geometry" />
        </mxCell>
        <mxCell id="9L7pS83hbGjuV_d6aadw-300" value="&amp;nbsp;Y" style="text;html=1;align=center;verticalAlign=middle;resizable=0;points=[];autosize=1;strokeColor=none;fillColor=none;" vertex="1" parent="1">
          <mxGeometry x="1820" y="620" width="30" height="30" as="geometry" />
        </mxCell>
        <mxCell id="9L7pS83hbGjuV_d6aadw-301" value="N" style="text;html=1;align=center;verticalAlign=middle;resizable=0;points=[];autosize=1;strokeColor=none;fillColor=none;" vertex="1" parent="1">
          <mxGeometry x="1920" y="560" width="30" height="30" as="geometry" />
        </mxCell>
        <mxCell id="9L7pS83hbGjuV_d6aadw-302" value="&lt;div&gt;&quot;결제 실패&quot;&lt;/div&gt;" style="text;html=1;align=center;verticalAlign=middle;resizable=0;points=[];autosize=1;strokeColor=none;fillColor=none;" vertex="1" parent="1">
          <mxGeometry x="1950" y="560" width="80" height="30" as="geometry" />
        </mxCell>
        <mxCell id="9L7pS83hbGjuV_d6aadw-306" style="edgeStyle=orthogonalEdgeStyle;rounded=0;orthogonalLoop=1;jettySize=auto;html=1;exitX=1;exitY=0.5;exitDx=0;exitDy=0;entryX=1;entryY=0.5;entryDx=0;entryDy=0;entryPerimeter=0;" edge="1" parent="1" source="9L7pS83hbGjuV_d6aadw-288" target="9L7pS83hbGjuV_d6aadw-297">
          <mxGeometry relative="1" as="geometry">
            <Array as="points">
              <mxPoint x="2070" y="590" />
              <mxPoint x="2070" y="955" />
            </Array>
          </mxGeometry>
        </mxCell>
      </root>
    </mxGraphModel>
  </diagram>
</mxfile>
